<svg xmlns="http://www.w3.org/2000/svg" width="452" height="88" fill="none"><path fill="#fff" d="M438.792.387c-5.852 2.869-7.302 8.479-3.151 12.444 2.101 1.983 3.851 2.7 6.902 2.7 9.003 0 12.904-9.576 5.752-14.173-1.55-1.013-2.451-1.224-5.202-1.35-1.85-.042-3.751.084-4.301.38Zm8.153 1.94c2.45 1.562 3.301 2.954 3.301 5.4 0 3.501-2.651 6.032-6.803 6.412-8.352.801-11.803-8.774-4.401-12.19 2.201-1.013 6.002-.845 7.903.379Z"/><path fill="#fff" d="M438.542 7.727c0 3.712.05 4.007 1 4.007.851 0 1.001-.295 1.001-1.687 0-1.603.1-1.687 1.45-1.687 1.801 0 3.051.97 3.051 2.362 0 .717.3 1.012.901 1.012.75 0 .9-.253.7-1.392-.1-.717-.45-1.602-.751-1.898-.35-.38-.35-.675.051-1.012.8-.675.75-2.573 0-3.206-.351-.295-2.001-.506-4.002-.506h-3.401v4.007Zm6.352-2.067c.4.928-1.1 1.856-2.951 1.856-1.2 0-1.4-.168-1.4-1.265 0-1.181.1-1.266 2-1.266 1.401 0 2.151.211 2.351.675ZM.5 1.906C.95 3.425 2.05 6.715 11.054 33.67c2.1 6.159 4.701 13.92 5.801 17.295l2.051 6.074v29.359h20.007V56.996l2.2-6.496c1.2-3.586 3.802-11.263 5.702-17.042C55.768 6.8 57.47 1.78 57.72 1.062c.25-.674-.4-.717-8.703-.717h-8.953l-.5 1.561c-.3.886-2.751 9.154-5.452 18.35-2.7 9.237-5.052 16.788-5.202 16.788-.15 0-2.75-8.268-5.701-18.35L17.805.346H0l.5 1.561ZM63.27 7.39a21621.656 21621.656 0 0 0-11.353 61.29c-1.1 5.906-2.2 11.77-2.5 13.035-.25 1.265-.501 2.826-.501 3.5v1.182h8.503c6.452 0 8.502-.127 8.553-.548 0-.254.75-4.978 1.6-10.42l1.6-9.912h14.506l.8 6.116c.45 3.375 1.1 8.057 1.451 10.42l.6 4.344h17.556l-.35-2.236c-.2-1.18-.901-5.146-1.551-8.731-.7-3.586-2.15-11.474-3.25-17.506-1.101-6.032-2.802-15.143-3.752-20.247-1.65-8.69-3.201-17.126-5.802-31.342l-1.1-5.99H64.57l-1.3 7.045Zm14.355 16.788c.7 4.851 1.9 12.36 2.551 16.662.7 4.303 1.25 8.057 1.25 8.31 0 .422-1.4.549-5.301.549h-5.302l.35-2.658c.2-1.434.75-5.484 1.25-8.942.5-3.502 1.451-10.166 2.051-14.89.65-4.683 1.3-8.395 1.45-8.226.2.21.951 4.302 1.701 9.195Zm29.81 19.193v43.026h18.006V60.792c0-14.046.1-25.478.25-25.393.2.21 4.151 19.91 8.502 42.35.751 3.713 1.451 7.172 1.601 7.678.25.928.45.97 5.652.97h5.401l.301-1.181c.25-1.013 2.55-13.372 6.052-32.354 2.7-14.637 3.101-16.704 3.451-16.957.15-.127.3 11.136.3 25.098v25.394h18.006V.345h-14.005c-7.702 0-14.004.17-14.004.38 0 .211-.901 7.93-2.001 17.168-1.101 9.28-2.151 18.434-2.301 20.416-.25 2.405-.5 3.29-.75 2.742-.25-.464-1.1-7.002-1.951-14.553-.85-7.55-1.85-16.324-2.25-19.488-.401-3.163-.751-5.99-.751-6.243 0-.295-4.851-.422-14.755-.422h-14.754v43.026Zm85.878-38.512c-.95 5.188-4.051 21.977-6.652 35.981-.951 5.23-2.301 12.444-2.951 16.03-3.151 16.661-5.252 28.22-5.252 28.852 0 .59 1 .675 8.503.675h8.453l.3-1.392c.15-.717.8-5.062 1.5-9.575.7-4.514 1.401-8.648 1.501-9.196.25-.928.35-.97 7.402-.844l7.102.127.55 3.796c.301 2.067.951 6.791 1.451 10.42l.9 6.664h8.953c8.303 0 8.953-.042 8.703-.76-.15-.38-1.851-9.28-3.751-19.698a37662.14 37662.14 0 0 0-10.804-58.17c-.7-3.712-1.25-6.875-1.25-7.086 0-.169-5.352-.338-11.904-.338h-11.904l-.85 4.514Zm13.104 14.047c.25 1.982 1.401 9.406 2.551 16.493 1.1 7.129 2.001 13.245 2.001 13.624 0 .591-.751.675-5.302.675h-5.302l.3-1.813c.15-.97.75-5.02 1.301-8.943.5-3.965 1.2-8.774 1.45-10.756.3-1.983.75-5.569 1.05-8.015.901-6.876 1.151-7.044 1.951-1.265Zm30.56 24.465v43.026h41.513V72.055l-10.853-.084-10.904-.127-.15-35.77-.1-35.729h-19.506v43.026Zm44.164-8.563c.2 37.078.15 36.403 2.851 42.435 2.051 4.598 6.752 8.394 12.254 9.829 1.351.38 4.852.759 7.753.885 15.955.633 24.258-5.778 26.008-20.12.3-2.574.5-16.915.5-35.897V.345l-9.603.085-9.653.126-.25 35.011c-.2 27.039-.4 35.222-.9 35.94-2.301 3.416-7.653 2.783-9.003-1.055-.45-1.223-.6-10.84-.6-35.897V.345h-19.557l.2 34.463Zm53.968 8.436.15 42.942 16.255.126c10.604.085 17.406-.042 19.607-.337 8.402-1.224 12.203-6.117 13.454-17.21 1.6-14.047-2.001-24.508-9.053-26.28-2.201-.548-2.201-1.012 0-1.434 2.001-.38 4.651-2.995 5.952-5.864 2.251-5.061 2.601-16.957.75-23.2-1.65-5.568-5.252-8.942-11.354-10.63-2.2-.59-5.251-.759-19.256-.885L335.009.26l.1 42.983Zm24.208-29.358c4.451.97 6.052 4.47 5.551 12.19-.55 7.677-1.75 9.365-7.302 9.87-1.7.17-3.301.17-3.551.043-.3-.169-.5-4.513-.5-11.431V13.422h1.8c.951 0 2.751.21 4.002.464Zm3.051 36.108c.75.421 1.8 1.56 2.35 2.488.951 1.477 1.051 2.362 1.051 9.238 0 6.834-.1 7.72-1.001 9.027-1.4 2.025-3.101 2.91-6.402 3.459-5.201.801-4.851 1.772-4.851-12.781V48.728l3.801.21c2.651.17 4.151.465 5.052 1.055Zm26.157-6.623v43.026h43.014l-.1-7.508-.15-7.467-12.104-.126-12.154-.085V49.7h20.007l-.1-7.509-.15-7.466-9.853-.127-9.904-.084V15.109h22.008V.346h-40.514V43.37Z"/></svg>